# xmcd
#
# Track frame offsets:
#	150
#	12372
#	25137
#	35732
#	48230
#	64737
#	77620
#	92370
#	101927
#	125762
#	140100
#	151952
#
# Disc length: 2179
#
# Revision: 3
# Processed by: cddbd v1.5.1PL0 Copyright (c) Steve Scherf et al.
# Submitted via: CDex 1.50Beta3
# Normalized: r2:DSETVAR1,TDELIM( - )
#
DISCID=9d08810c
DTITLE=Various Artist - Adult Pop Vocal Omnibus Vol. 1
DYEAR=1900
DGENRE=
TTITLE0=Bobby Vinton - Mr. Lonely
TTITLE1=Shirley Bassey - Goldfinger
TTITLE2=Louis Armstrong - What A Wonderful World
TTITLE3=Dean Martin - Everybody Loves Somebody Sometime
TTITLE4=The Righteous Brothers - Unchained Melody
TTITLE5=The Righteous Brothers - Ebb Tide
TTITLE6=Bob Dylan - The Time They Are A-Changin'
TTITLE7=The Beatles - Yesterday
TTITLE8=Astrud Gilberto - The Girl From Ipanema
TTITLE9=Petula Clark - Down Town
TTITLE10=Johnny Rivers - Memphis
TTITLE11=Dianna Ross and The Supremes - Where Did Our Love Go
EXTD=
EXTT0=
EXTT1=
EXTT2=
EXTT3=
EXTT4=
EXTT5=
EXTT6=
EXTT7=
EXTT8=
EXTT9=
EXTT10=
EXTT11=
PLAYORDER=
